<?xml version="1.0" encoding="UTF-8" standalone="no"?><!DOCTYPE svg PUBLIC "-//W3C//DTD SVG 1.1//EN" "http://www.w3.org/Graphics/SVG/1.1/DTD/svg11.dtd"><svg width="100%" height="100%" viewBox="0 0 320 320" version="1.1" xmlns="http://www.w3.org/2000/svg" xmlns:xlink="http://www.w3.org/1999/xlink" xml:space="preserve" xmlns:serif="http://www.serif.com/" style="fill-rule:evenodd;clip-rule:evenodd;stroke-linejoin:round;stroke-miterlimit:2;"><circle cx="160" cy="160" r="160" style="fill:#08030c;"/><path d="M160,0c88.306,0 160,71.694 160,160c0,88.306 -71.694,160 -160,160c-88.306,0 -160,-71.694 -160,-160c0,-88.306 71.694,-160 160,-160Zm0,13.333c-80.948,0 -146.667,65.719 -146.667,146.667c-0,80.948 65.719,146.667 146.667,146.667c80.948,0 146.667,-65.719 146.667,-146.667c0,-80.948 -65.719,-146.667 -146.667,-146.667Z" style="fill:#fff;"/><path d="M154.24,48.076c1.172,-0.056 2.281,0.535 2.888,1.54c0.607,1.005 0.614,2.261 0.019,3.273c-1.538,2.622 -3.652,6.216 -6.25,10.633c-17.817,30.288 -12.907,68.79 11.941,93.638c24.847,24.847 63.35,29.757 93.638,11.941c4.417,-2.598 8.011,-4.712 10.631,-6.254c1.013,-0.596 2.271,-0.589 3.277,0.019c1.006,0.608 1.598,1.718 1.542,2.892c-3.038,59.146 -51.955,106.169 -111.855,106.169c-61.814,0 -112,-50.186 -112,-112c0,-59.9 47.024,-108.818 106.17,-111.851Z" style="fill:#7a20cc;"/><path d="M153.605,34.758c6.063,-0.289 11.798,2.768 14.936,7.964c3.139,5.196 3.176,11.694 0.108,16.911c-1.54,2.626 -3.657,6.225 -6.259,10.649c-14.736,25.052 -10.675,56.898 9.876,77.449c20.552,20.552 52.398,24.613 77.449,9.876l10.63,-6.253c5.234,-3.079 11.734,-3.042 16.932,0.097c5.198,3.139 8.256,8.876 7.967,14.941l-0.002,0.048c-3.399,66.19 -58.137,118.819 -125.171,118.819c-69.173,0 -125.333,-56.16 -125.333,-125.333c0,-67.034 52.63,-121.772 118.82,-125.167l0.048,-0.002Zm0.635,13.318c-59.146,3.033 -106.17,51.951 -106.17,111.851c0,61.814 50.186,112 112,112c59.9,0 108.818,-47.024 111.855,-106.169c0.056,-1.174 -0.536,-2.284 -1.542,-2.892c-1.006,-0.608 -2.264,-0.615 -3.277,-0.019l-10.631,6.254c-30.288,17.817 -68.79,12.907 -93.638,-11.941c-24.847,-24.847 -29.757,-63.35 -11.941,-93.638c2.598,-4.417 4.712,-8.011 6.25,-10.633c0.595,-1.012 0.588,-2.268 -0.019,-3.273c-0.607,-1.005 -1.716,-1.596 -2.888,-1.54Z" style="fill:#fff;"/><path d="M211.319,71.461c0.166,-0.536 0.662,-0.902 1.223,-0.902c0.561,0 1.057,0.366 1.223,0.902c1.807,5.847 5.081,16.443 6.052,19.586c0.166,0.536 0.662,0.902 1.223,0.902c3.227,0 13.934,0 19.718,0c0.549,-0 1.037,0.35 1.213,0.87c0.176,0.52 0.001,1.094 -0.435,1.427c-4.699,3.589 -13.508,10.32 -16.061,12.269c-0.426,0.326 -0.604,0.883 -0.446,1.395c0.959,3.104 4.301,13.918 6.108,19.767c0.164,0.532 -0.034,1.109 -0.491,1.428c-0.457,0.319 -1.067,0.305 -1.509,-0.033c-4.698,-3.589 -13.214,-10.095 -15.818,-12.084c-0.459,-0.35 -1.095,-0.35 -1.554,-0c-2.604,1.989 -11.12,8.495 -15.818,12.084c-0.442,0.338 -1.053,0.351 -1.509,0.033c-0.457,-0.319 -0.655,-0.896 -0.491,-1.428c1.807,-5.849 5.149,-16.663 6.108,-19.767c0.158,-0.513 -0.02,-1.069 -0.446,-1.395c-2.552,-1.95 -11.362,-8.68 -16.061,-12.269c-0.436,-0.333 -0.611,-0.907 -0.435,-1.427c0.176,-0.52 0.664,-0.87 1.213,-0.87c5.783,-0 16.491,-0 19.718,-0c0.561,-0 1.057,-0.366 1.223,-0.902c0.971,-3.143 4.246,-13.739 6.052,-19.586Z" style="fill:#eabe33;"/><path d="M195.152,78.616l3.427,-11.092c1.892,-6.123 7.553,-10.299 13.962,-10.299c6.409,0 12.07,4.176 13.962,10.299l3.427,11.092l10.827,0c6.266,-0 11.835,3.995 13.843,9.931c2.008,5.936 0.008,12.491 -4.972,16.295l-9.379,7.165l3.626,11.734c1.877,6.073 -0.388,12.663 -5.602,16.3c-5.214,3.637 -12.18,3.486 -17.232,-0.373l-8.501,-6.494l-8.501,6.494c-5.051,3.859 -12.018,4.01 -17.232,0.373c-5.214,-3.637 -7.478,-10.227 -5.602,-16.3l3.626,-11.734l-9.379,-7.165c-4.979,-3.804 -6.979,-10.359 -4.972,-16.295c2.008,-5.936 7.577,-9.931 13.843,-9.931l10.827,-0Zm16.166,-7.155l-6.052,19.586c-0.166,0.536 -0.662,0.902 -1.223,0.902l-19.718,0c-0.549,-0 -1.037,0.35 -1.213,0.87c-0.176,0.52 -0.001,1.094 0.435,1.427l16.061,12.269c0.426,0.326 0.604,0.883 0.446,1.395l-6.108,19.767c-0.164,0.532 0.034,1.109 0.491,1.428c0.457,0.319 1.067,0.305 1.509,-0.033l15.818,-12.084c0.459,-0.35 1.095,-0.35 1.554,0l15.818,12.084c0.442,0.338 1.053,0.351 1.509,0.033c0.457,-0.319 0.655,-0.896 0.491,-1.428l-6.108,-19.767c-0.158,-0.513 0.02,-1.069 0.446,-1.395l16.061,-12.269c0.436,-0.333 0.611,-0.907 0.435,-1.427c-0.176,-0.52 -0.664,-0.87 -1.213,-0.87l-19.718,-0c-0.561,-0 -1.057,-0.366 -1.223,-0.902l-6.052,-19.586c-0.166,-0.536 -0.662,-0.902 -1.223,-0.902c-0.561,-0 -1.057,0.366 -1.223,0.902Z" style="fill:#fff;"/></svg>