<?xml version="1.0" encoding="UTF-8" standalone="no"?><!DOCTYPE svg PUBLIC "-//W3C//DTD SVG 1.1//EN" "http://www.w3.org/Graphics/SVG/1.1/DTD/svg11.dtd"><svg width="2000px" height="2000px" version="1.1" xmlns="http://www.w3.org/2000/svg" xmlns:xlink="http://www.w3.org/1999/xlink" xml:space="preserve" xmlns:serif="http://www.serif.com/" style="fill-rule:evenodd;clip-rule:evenodd;stroke-linejoin:round;stroke-miterlimit:2;"><path d="M2000,400L2000,1600C2000,1821 1821,2000 1600,2000L400,2000C179,2000 0,1821 0,1600L0,400C0,179 179,0 400,0L1600,0C1821,0 2000,179 2000,400Z" style="fill:url(#_Linear1);"/><g id="Logo" transform="matrix(0.75,0,0,0.75,250,250)"><g id="Fondo-Luna" serif:id="Fondo Luna" transform="matrix(1.562633,0,0,1.668934,-730.360934,-530.612245)"><ellipse cx="1107" cy="917" rx="640" ry="599" style="fill:url(#_Linear2);"/></g><path d="M750,293C828,265 912,250 1000,250C1414,250 1750,586 1750,1000C1750,1414 1414,1750 1000,1750C912,1750 828,1735 750,1707C1041,1604 1250,1326 1250,1000C1250,674 1041,396 750,293Z" style="fill:rgb(235,235,235);"/></g><defs><linearGradient id="_Linear1" x1="0" y1="0" x2="1" y2="0" gradientUnits="userSpaceOnUse" gradientTransform="matrix(2000,0,-0,2000,-0,1000)"><stop offset="0" style="stop-color:rgb(94,92,230);stop-opacity:1"/><stop offset="1" style="stop-color:rgb(175,82,222);stop-opacity:1"/></linearGradient><linearGradient id="_Linear2" x1="0" y1="0" x2="1" y2="0" gradientUnits="userSpaceOnUse" gradientTransform="matrix(1279.891304,0,-0,1198.369565,467.391304,917.119565)"><stop offset="0" style="stop-color:rgb(94,92,230);stop-opacity:1"/><stop offset="1" style="stop-color:rgb(175,82,222);stop-opacity:1"/></linearGradient></defs></svg>